<svg height="933.333" viewBox="0 0 700 700" width="933.333" xmlns="http://www.w3.org/2000/svg"><path d="m339 7.7c-75.9 2.8-144.9 28.4-205 76.2-12.2 9.7-40.4 37.9-50.1 50.1-43.2 54.3-68.6 116.8-75 184-1.4 14.8-1.4 49.2 0 64 6.4 67.2 31.8 129.7 75 184 9.7 12.2 37.9 40.4 50.1 50.1 54.3 43.2 116.8 68.6 184 75 14.8 1.4 49.2 1.4 64 0 67.2-6.4 129.7-31.8 184-75 12.2-9.7 40.4-37.9 50.1-50.1 38.1-47.9 62.1-101.3 71.8-160 3.1-19 4.2-33.5 4.2-56s-1.1-37-4.2-56c-9.7-58.7-33.7-112.1-71.8-160-9.7-12.2-37.9-40.4-50.1-50.1-47.3-37.7-99.7-61.3-157.5-71.4-20.4-3.5-49.8-5.5-69.5-4.8zm54.4 55.3c50.2 7.7 98.3 28.7 138.1 60.5 12.8 10.2 34.8 32.2 45 45 25.5 32 44.6 70.2 54.6 109.1 6.8 26.9 8.3 39.8 8.3 72.4 0 24.6-.3 30.5-2.2 42.9-8 51.1-28.8 98.6-60.7 138.6-10.2 12.8-32.2 34.8-45 45-32 25.5-70.2 44.6-109.1 54.6-26.9 6.8-39.8 8.3-72.4 8.3-24.6 0-30.5-.3-42.9-2.2-51.1-8-98.6-28.8-138.6-60.7-12.8-10.2-34.8-32.2-45-45-25.5-32-44.6-70.2-54.6-109.1-6.8-26.9-8.3-39.8-8.3-72.4 0-24.6.3-30.5 2.2-42.9 8-51.1 28.8-98.6 60.7-138.6 10.2-12.8 32.2-34.8 45-45 32-25.6 70.2-44.6 109.2-54.6 12.9-3.3 33.1-6.8 47.8-8.3 2.2-.2 15.3-.3 29-.1 19.3.2 28.1.8 38.9 2.5z"/><path d="m365.3 116c-1.6.6-2.3 1.8-2.3 3.5s13 24.6 34.3 60.8c18.9 32 38.2 65.6 42.9 74.7 15.4 29.8 16.6 31.4 21 29.3 1.6-.7 11-15.9 29.5-47.4 15-25.5 27.5-47.2 27.9-48.2.8-2.2-8-10.8-23.1-22.6-33.2-25.9-75.3-43.7-116-49.1-4.9-.6-9.7-1.3-10.5-1.5s-2.5 0-3.7.5zm-72.3 3.6c-50.4 13.3-93.7 41.3-125.3 81.1-11.4 14.4-12.8 18.2-7.5 20.2 3.4 1.2 194.7 2.2 196.9 1 1.1-.5 1.9-2 1.9-3.2 0-2.7-53.2-96.5-56.1-99-2.5-2-2.6-2-9.9-.1zm258.1 119.1c-1.1 1-16.3 26.5-33.7 56.8-17.4 30.2-32.4 56.2-33.4 57.6-1 1.5-7.8 13.2-15.1 26-11.3 20.1-13 23.7-12.2 25.9l.8 2.5h122l2.2-11c3.3-16.4 4.7-34.6 4-54-1.2-33.1-7.5-59.9-21.9-92-6.1-13.6-8.1-15.6-12.7-11.8zm-424.7 36.3c-1.7.7-2.6 3-4.8 11.7-10 41.5-10.1 83.3-.2 121.3 4.9 19.1 18.4 51.2 22 52.6 4.9 1.9 5.2 1.5 42.5-64 19.9-34.9 36.7-64.1 37.4-64.8 1.6-1.6 28.3-49 29.2-51.7.4-1.3-.1-2.7-1.4-4-2.1-2.1-2.9-2.1-62.3-2-33.2 0-61.3.4-62.4.9zm119.6 126.3c-2.7 1.4-65.8 108.8-65.9 112.3-.1 2 6.6 8.7 20.9 20.5 7.5 6.3 22.7 16.6 33.5 22.7 31.8 17.9 73.4 29.2 107.7 29.2 9.3 0 9.4 0 11.1-2.9.9-1.6 1.7-3.5 1.7-4.1 0-.7-17-29.9-37.8-64.9s-44-74.5-51.6-87.8c-7.5-13.4-14.5-24.7-15.5-25.2-1.1-.6-2.5-.6-4.1.2zm105.2 60.9c-.7.7-1.2 2.2-1.2 3.5 0 1.8 52 91.8 61.6 106.6 3.1 4.7 4.5 4.7 17.1.2 48.4-17.5 91.2-52.2 118.9-96.2 5.7-9.2 6.6-12.6 3.5-14.3-3-1.6-198.3-1.4-199.9.2z"/></svg>