<svg enable-background="new 0 0 49.652 49.652" viewBox="0 0 49.652 49.652" xmlns="http://www.w3.org/2000/svg"><path d="m24.826 0c-13.689 0-24.826 11.137-24.826 24.826 0 13.688 11.137 24.826 24.826 24.826 13.688 0 24.826-11.138 24.826-24.826 0-13.689-11.136-24.826-24.826-24.826zm11.075 19.144c.011.246.017.494.017.742 0 7.551-5.746 16.255-16.259 16.255-3.227 0-6.231-.943-8.759-2.565.447.053.902.08 1.363.08 2.678 0 5.141-.914 7.097-2.446-2.5-.046-4.611-1.698-5.338-3.969.348.066.707.103 1.074.103.521 0 1.027-.068 1.506-.199-2.614-.524-4.583-2.833-4.583-5.603 0-.024 0-.049.001-.072.77.427 1.651.685 2.587.714-1.532-1.023-2.541-2.773-2.541-4.755 0-1.048.281-2.03.773-2.874 2.817 3.458 7.029 5.732 11.777 5.972-.098-.419-.147-.854-.147-1.303 0-3.155 2.558-5.714 5.713-5.714 1.644 0 3.127.694 4.171 1.804 1.303-.256 2.523-.73 3.63-1.387-.43 1.335-1.333 2.454-2.516 3.162 1.157-.138 2.261-.444 3.282-.899-.762 1.144-1.731 2.151-2.848 2.954z"/></svg>