<svg fill="none" viewBox="0 0 256 256" xmlns="http://www.w3.org/2000/svg"><path d="m0 0h256v256h-256z" fill="none"/><path d="m256 175.266s.062 26.682-2.843 38.247c-2.905 11.564-8.239 19.627-14.15 25.537-5.938 5.936-13.803 11.334-25.792 14.146-11.989 2.813-38.003 2.763-38.003 2.763l-94.5059.041s-26.6863.062-38.2526-2.842c-11.5666-2.905-19.6309-8.239-25.5418-14.149-5.9374-5.936-11.33572-13.8-14.14841-25.787-2.8126882-11.987-2.76318486-37.997-2.76318486-37.997v-94.491s-.06225414-26.6818 2.84294486-38.2465c2.90494-11.5647 8.23935-19.6275 14.15045-25.5374 5.9374-5.9365 13.8027-11.33426 25.7915-14.1465 11.9891-2.8122453 38.0026-2.7627498 38.0026-2.7627498l94.5064-.04074629s26.686-.06199431 38.253 2.84248609c11.566 2.90449 19.63 8.23801 25.541 14.14821 5.937 5.9365 11.336 13.8005 14.149 25.7874 2.812 11.9871 2.763 37.9965 2.763 37.9965z" fill="#270f34"/><path d="m58.8213 61.3168h139.035v133.052h-139.035z" fill="none"/><path d="m58.8213 144.488h55.5902v49.8809h-55.5902z" fill="none"/><g clip-rule="evenodd" fill-rule="evenodd"><path d="m97.655 147.661c5.894 3.674 9.823 10.182 9.823 17.621 0 11.484-9.3397 20.794-20.8596 20.794-1.4063 0-2.7764-.145-4.1028-.407 3.2052 1.999 6.9773 3.173 11.0366 3.173 11.5238 0 20.8588-9.311 20.8588-20.794 0-10.085-7.202-18.487-16.756-20.387z" fill="#2c96ff"/><path d="m82.5151 185.669c.0073 0 .0182 0 .0255.003-9.5684-1.889-16.782-10.298-16.782-20.39 0-3.111.705-6.051 1.9297-8.704-5.3565 3.765-8.867 9.969-8.867 16.997 0 11.487 9.3431 20.794 20.8629 20.794 5.4656 0 10.426-2.115 14.1473-5.542-.0945 0-.1854.014-.2798.014-4.0592 0-7.8314-1.174-11.0366-3.172z" fill="#e91e63"/><path d="m86.6183 186.208c11.5202 0 20.8597-9.34 20.8597-20.86s-9.3395-20.86-20.8597-20.86-20.86 9.34-20.86 20.86 9.3398 20.86 20.86 20.86z" fill="#fefefe"/></g><path d="m58.8213 61.3168h55.5902v49.8778h-55.5902z" fill="none"/><path clip-rule="evenodd" d="m97.655 64.4864c5.894 3.674 9.823 10.1825 9.823 17.6214 0 11.4835-9.3397 20.7942-20.8596 20.7942-1.4063 0-2.7764-.142-4.1028-.407 3.2052 1.998 6.9773 3.172 11.0366 3.172 11.5238 0 20.8588-9.3102 20.8588-20.7937 0-10.0845-7.202-18.4863-16.756-20.3869z" fill="#2c96ff" fill-rule="evenodd"/><path clip-rule="evenodd" d="m82.5151 102.495c.0073 0 .0182 0 .0255.003-9.5684-1.889-16.782-10.2985-16.782-20.3902 0-3.1107.705-6.0506 1.9297-8.6998-5.3565 3.7612-8.867 9.9645-8.867 16.9927 0 11.4873 9.3431 20.7943 20.8629 20.7943 5.4656 0 10.426-2.112 14.1473-5.542-.0945 0-.1854.014-.2798.014-4.0592 0-7.8314-1.174-11.0366-3.172z" fill="#e91e63" fill-rule="evenodd"/><path clip-rule="evenodd" d="m86.6183 103.037c11.5202 0 20.8597-9.341 20.8597-20.8621 0-11.521-9.3395-20.8581-20.8597-20.8581s-20.86 9.3371-20.86 20.8581c0 11.5211 9.3398 20.8621 20.86 20.8621z" fill="#fefefe" fill-rule="evenodd"/><path d="m142.264 61.3168h55.5928v49.8778h-55.5928z" fill="none"/><path clip-rule="evenodd" d="m181.096 64.4864c5.895 3.674 9.827 10.1825 9.827 17.6214 0 11.4835-9.343 20.7942-20.863 20.7942-1.403 0-2.777-.142-4.103-.407 3.205 1.998 6.977 3.172 11.037 3.172 11.523 0 20.863-9.3102 20.863-20.7937 0-10.0845-7.207-18.4863-16.761-20.3869z" fill="#2c96ff" fill-rule="evenodd"/><path clip-rule="evenodd" d="m165.958 102.495c.007 0 .018 0 .029.003-9.569-1.889-16.786-10.2985-16.786-20.3902 0-3.1107.705-6.0506 1.933-8.6998-5.36 3.7612-8.87 9.9645-8.87 16.9927 0 11.4873 9.343 20.7943 20.863 20.7943 5.469 0 10.426-2.112 14.147-5.542-.095 0-.185.014-.28.014-4.059 0-7.831-1.174-11.036-3.172z" fill="#e91e63" fill-rule="evenodd"/><path clip-rule="evenodd" d="m170.058 103.037c11.52 0 20.862-9.341 20.862-20.8621 0-11.521-9.342-20.8581-20.862-20.8581-11.519 0-20.858 9.3371-20.858 20.8581 0 11.5211 9.339 20.8621 20.858 20.8621z" fill="#fefefe" fill-rule="evenodd"/><path d="m142.264 144.488h55.5928v49.8809h-55.5928z" fill="none"/><path clip-rule="evenodd" d="m181.096 147.661c5.895 3.674 9.827 10.182 9.827 17.621 0 11.484-9.343 20.794-20.863 20.794-1.403 0-2.777-.145-4.103-.407 3.205 1.999 6.977 3.173 11.037 3.173 11.523 0 20.863-9.311 20.863-20.794 0-10.085-7.207-18.487-16.761-20.387z" fill="#2c96ff" fill-rule="evenodd"/><path clip-rule="evenodd" d="m165.958 185.669c.007 0 .018 0 .029.003-9.569-1.889-16.786-10.298-16.786-20.39 0-3.111.705-6.051 1.933-8.704-5.36 3.765-8.87 9.969-8.87 16.997 0 11.487 9.343 20.794 20.863 20.794 5.469 0 10.426-2.115 14.147-5.542-.095 0-.185.014-.28.014-4.059 0-7.831-1.174-11.036-3.172z" fill="#e91e63" fill-rule="evenodd"/><path clip-rule="evenodd" d="m170.058 186.208c11.52 0 20.862-9.34 20.862-20.86s-9.342-20.86-20.862-20.86c-11.519 0-20.858 9.34-20.858 20.86s9.339 20.86 20.858 20.86z" fill="#fefefe" fill-rule="evenodd"/></svg>