<svg height="120" viewBox="0 0 120 120" width="120" xmlns="http://www.w3.org/2000/svg" xmlns:xlink="http://www.w3.org/1999/xlink"><defs><linearGradient id="a" x1="50%" x2="50%" y1="0%" y2="100%"><stop offset="0" stop-color="#06c4fd"/><stop offset="1" stop-color="#1569f4"/></linearGradient><rect id="b" height="120" rx="28" width="120"/><mask id="c" fill="#fff"><use fill="#fff" fill-rule="evenodd" xlink:href="#b"/></mask></defs><g fill="none" fill-rule="evenodd"><use fill="url(#a)" xlink:href="#b"/><path d="m83.226 68.906h13.805a5.625 5.625 0 1 1 0 11.25h-7.355l5.042 8.795a5.642 5.642 0 0 1 -2.073 7.692 5.638 5.638 0 0 1 -7.695-2.052l-21.09-36.342c-.004-.006-1.246-2.223-.847-7.3.205-2.61 1.722-5.729 4.552-9.358zm-23.619-40.856 2.15-3.725a5.625 5.625 0 1 1 9.743 5.625l-22.49 38.956h17.204c.63.196 5.595 3.36 5.64 7.95.015 1.492-.282 2.592-.892 3.3h-49.165a5.625 5.625 0 0 1 0-11.25h14.222l17.093-29.606-5.534-9.585a5.625 5.625 0 1 1 9.743-5.625zm-31.564 55.083s1.263-1.04 4.14-.982c1.92.04 4.39 1.217 7.416 3.534l-5.567 8.988a5.801 5.801 0 0 1 -7.832 1.97 5.334 5.334 0 0 1 -1.846-7.464c1.189-1.885 2.418-3.9 3.69-6.046z" fill="#fff" mask="url(#c)"/></g></svg>