<svg width="92" height="24" viewBox="0 0 92 24" fill="none" xmlns="http://www.w3.org/2000/svg">
<path d="M12 24C5.3617 24 0 18.6383 0 12C0 5.3617 5.3617 0 12 0C18.6383 0 24 5.3617 24 12C24 18.6383 18.6383 24 12 24ZM12 1.8383C6.38298 1.8383 1.8383 6.38298 1.8383 12C1.8383 17.617 6.38298 22.1617 12 22.1617C17.617 22.1617 22.1617 17.617 22.1617 12C22.1617 6.38298 17.617 1.8383 12 1.8383Z" fill="#5E2CA5"/>
<path fill-rule="evenodd" clip-rule="evenodd" d="M16.6974 12.1023C16.6974 12.1023 16.6974 12.1534 16.6463 12.1534L15.7272 13.7874C15.6761 13.8895 15.7272 14.0427 15.8803 14.0427H19.9144C20.0165 14.0427 20.0676 13.9917 20.0676 13.8895C20.2208 13.2768 20.2718 12.6129 20.2718 12.0002C20.2718 10.6214 19.9144 9.29379 19.3016 8.11932C19.2506 8.01719 19.0974 8.01719 18.9952 8.11932L16.6974 12.1023Z" fill="#5E2CA5"/>
<path fill-rule="evenodd" clip-rule="evenodd" d="M14.8085 8.01711L15.0128 8.37455L15.0638 8.52774L15.6766 9.65115C15.7277 9.75328 15.8809 9.75328 15.983 9.65115L17.8723 6.43413C17.9234 6.38306 17.9234 6.28094 17.8723 6.22987C16.4936 4.85115 14.6553 3.98306 12.6128 3.77881C12.4596 3.77881 12.4085 3.932 12.4596 4.03413L14.8085 8.01711Z" fill="#5E2CA5"/>
<path fill-rule="evenodd" clip-rule="evenodd" d="M10.2126 7.55746H10.2636H10.3147H12.153C12.3062 7.55746 12.3573 7.40427 12.3062 7.30214L10.4168 3.98299C10.3658 3.93192 10.3147 3.88086 10.2126 3.88086C8.17002 4.34043 6.38279 5.56597 5.25938 7.25107C5.20832 7.3532 5.25938 7.50639 5.41257 7.50639H10.2126V7.55746Z" fill="#5E2CA5"/>
<path fill-rule="evenodd" clip-rule="evenodd" d="M7.50626 11.4386C7.55732 11.3875 7.55732 11.3365 7.60839 11.3365C7.60839 11.2854 7.60839 11.2854 7.65945 11.2343L8.5786 9.60029C8.62966 9.49816 8.5786 9.34497 8.42541 9.34497H4.23818C4.18711 9.34497 4.08499 9.39603 4.08499 9.4471C3.82967 10.3152 3.72754 11.1322 3.72754 12.0003C3.72754 13.379 4.08499 14.7067 4.69775 15.8301C4.74881 15.9322 4.90201 15.9322 5.00413 15.8301L7.50626 11.4386Z" fill="#5E2CA5"/>
<path fill-rule="evenodd" clip-rule="evenodd" d="M14.298 15.8809C14.2469 15.8809 14.1959 15.8809 14.0937 15.8809C14.0427 15.8809 14.0427 15.8809 13.9916 15.8809H12.1533C12.0001 15.8809 11.949 16.0341 12.0001 16.1362L14.1959 19.8638C14.2469 19.9149 14.298 19.966 14.4001 19.9149C16.3916 19.3021 18.0767 17.9234 19.098 16.1362C19.149 16.0341 19.098 15.8809 18.9448 15.8809H14.298Z" fill="#5E2CA5"/>
<path fill-rule="evenodd" clip-rule="evenodd" d="M9.49766 15.4724C9.4466 15.4213 9.4466 15.3192 9.39553 15.2681L8.57851 13.8383C8.52745 13.7362 8.37426 13.7362 8.27213 13.8383L6.07638 17.617C6.02532 17.6681 6.02532 17.7702 6.07638 17.8213C7.6083 19.3532 9.70192 20.3234 12.0509 20.2724C12.153 20.1192 12.1019 20.1702 12.204 20.017L9.49766 15.4724Z" fill="#5E2CA5"/>
<path d="M41.6348 14.0257H38.6647V19.7943H36V4.82262H41.3925C43.1619 4.82262 44.5276 5.20994 45.4896 5.98458C46.4515 6.75921 46.9325 7.88003 46.9325 9.34704C46.9325 10.3479 46.6832 11.1877 46.1847 11.8663C45.6932 12.5381 45.0051 13.0557 44.1204 13.419L47.5644 19.6607V19.7943H44.7102L41.6348 14.0257ZM38.6647 11.9383H41.403C42.3018 11.9383 43.0039 11.7189 43.5095 11.2802C44.015 10.8346 44.2678 10.2279 44.2678 9.46015C44.2678 8.6581 44.0326 8.0377 43.5622 7.59897C43.0987 7.16024 42.4036 6.93402 41.4768 6.92031H38.6647V11.9383Z" fill="#5E2CA5"/>
<path d="M54.2313 20C52.6094 20 51.2928 19.503 50.2817 18.509C49.2777 17.5081 48.7756 16.1782 48.7756 14.5193V14.2108C48.7756 13.1003 48.9933 12.1097 49.4286 11.2391C49.871 10.3616 50.4889 9.67952 51.2823 9.1928C52.0757 8.70608 52.9604 8.46272 53.9364 8.46272C55.4882 8.46272 56.6853 8.94602 57.5279 9.9126C58.3775 10.8792 58.8023 12.2468 58.8023 14.0154V15.0231H51.356C51.4333 15.9417 51.7457 16.6684 52.2934 17.2031C52.8481 17.7378 53.5432 18.0051 54.3788 18.0051C55.5514 18.0051 56.5063 17.5424 57.2436 16.617L58.6233 17.9023C58.1669 18.5673 57.556 19.0848 56.7907 19.455C56.0323 19.8183 55.1792 20 54.2313 20ZM53.9259 10.4679C53.2237 10.4679 52.655 10.7078 52.2197 11.1877C51.7914 11.6675 51.5175 12.3359 51.3982 13.1928H56.2746V13.0077C56.2184 12.1714 55.9902 11.5407 55.59 11.1157C55.1898 10.6838 54.6351 10.4679 53.9259 10.4679Z" fill="#5E2CA5"/>
<path d="M65.4798 18.0051C66.1187 18.0051 66.6489 17.8235 67.0702 17.4602C67.4914 17.0968 67.7161 16.6478 67.7442 16.1131H70.1561C70.128 16.8055 69.9068 17.4533 69.4926 18.0566C69.0783 18.653 68.5166 19.126 67.8074 19.4756C67.0982 19.8252 66.3329 20 65.5114 20C63.9175 20 62.6536 19.4961 61.7198 18.4884C60.7859 17.4807 60.319 16.0891 60.319 14.3136V14.0566C60.319 12.3633 60.7824 11.0094 61.7092 9.99486C62.6361 8.97344 63.8999 8.46272 65.5008 8.46272C66.856 8.46272 67.9584 8.85004 68.808 9.62468C69.6646 10.3925 70.114 11.4036 70.1561 12.6581H67.7442C67.7161 12.0206 67.4914 11.4961 67.0702 11.0848C66.6559 10.6735 66.1258 10.4679 65.4798 10.4679C64.6512 10.4679 64.0123 10.7626 63.5629 11.3522C63.1135 11.9349 62.8853 12.8226 62.8783 14.0154V14.4165C62.8783 15.623 63.0995 16.5244 63.5418 17.1208C63.9912 17.7104 64.6372 18.0051 65.4798 18.0051Z" fill="#5E2CA5"/>
<path d="M78.8979 19.7943C78.7855 19.5818 78.6872 19.2356 78.603 18.7558C77.7885 19.5853 76.7914 20 75.6118 20C74.4673 20 73.5334 19.6812 72.8102 19.0437C72.087 18.4062 71.7254 17.6178 71.7254 16.6787C71.7254 15.4927 72.1748 14.5844 73.0735 13.9537C73.9793 13.3162 75.2713 12.9974 76.9494 12.9974H78.5187V12.2674C78.5187 11.6915 78.3537 11.2322 78.0237 10.8895C77.6937 10.5398 77.1917 10.365 76.5176 10.365C75.9348 10.365 75.4573 10.509 75.0852 10.7969C74.7131 11.078 74.527 11.4379 74.527 11.8766H71.9677C71.9677 11.2665 72.1748 10.6975 72.5891 10.1697C73.0033 9.63496 73.565 9.21679 74.2742 8.91517C74.9904 8.61354 75.7873 8.46272 76.665 8.46272C77.9991 8.46272 79.0629 8.79177 79.8563 9.44987C80.6497 10.1011 81.057 11.0197 81.0781 12.2057V17.2236C81.0781 18.2245 81.222 19.0231 81.5099 19.6195V19.7943H78.8979ZM76.0858 17.9949C76.5913 17.9949 77.0653 17.8749 77.5076 17.635C77.957 17.395 78.294 17.0728 78.5187 16.6684V14.5707H77.139C76.1911 14.5707 75.4784 14.7318 75.0009 15.054C74.5235 15.3762 74.2847 15.832 74.2847 16.4216C74.2847 16.9015 74.4462 17.2853 74.7692 17.5733C75.0992 17.8543 75.5381 17.9949 76.0858 17.9949Z" fill="#5E2CA5"/>
<path d="M86.4811 19.7943H83.9218V4H86.4811V19.7943Z" fill="#5E2CA5"/>
<path d="M92 19.7943H89.4407V4H92V19.7943Z" fill="#5E2CA5"/>
</svg>
