<svg height="48" viewBox="0 0 48 48" width="48" xmlns="http://www.w3.org/2000/svg"><g fill="#5e2ca5" fill-rule="evenodd"><path d="m24 47.5c-13 0-23.5-10.5-23.5-23.5s10.5-23.5 23.5-23.5 23.5 10.5 23.5 23.5-10.5 23.5-23.5 23.5zm0-43.4c-11 0-19.9 8.9-19.9 19.9s8.9 19.9 19.9 19.9 19.9-8.9 19.9-19.9-8.9-19.9-19.9-19.9z" fill-rule="nonzero"/><path d="m33.2 24.2s0 .1-.1.1l-1.8 3.2c-.1.2 0 .5.3.5h7.9c.2 0 .3-.1.3-.3.3-1.2.4-2.5.4-3.7 0-2.7-.7-5.3-1.9-7.6-.1-.2-.4-.2-.6 0z"/><path d="m29.5 16.2.4.7.1.3 1.2 2.2c.1.2.4.2.6 0l3.7-6.3c.1-.1.1-.3 0-.4-2.7-2.7-6.3-4.4-10.3-4.8-.3 0-.4.3-.3.5z"/><path d="m20.5 15.3h.1.1 3.6c.3 0 .4-.3.3-.5l-3.7-6.5c-.1-.1-.2-.2-.4-.2-4 .9-7.5 3.3-9.7 6.6-.1.2 0 .5.3.5h9.4z"/><path d="m15.2 22.9c.1-.1.1-.2.2-.2 0-.1 0-.1.1-.2l1.8-3.2c.1-.2 0-.5-.3-.5h-8.2c-.1 0-.3.1-.3.2-.5 1.7-.7 3.3-.7 5 0 2.7.7 5.3 1.9 7.5.1.2.4.2.6 0z"/><path d="m28.5 31.6c-.1 0-.2 0-.4 0-.1 0-.1 0-.2 0h-3.6c-.3 0-.4.3-.3.5l4.3 7.3c.1.1.2.2.4.1 3.9-1.2 7.2-3.9 9.2-7.4.1-.2 0-.5-.3-.5z"/><path d="m19.1 30.8c-.1-.1-.1-.3-.2-.4l-1.6-2.8c-.1-.2-.4-.2-.6 0l-4.3 7.4c-.1.1-.1.3 0 .4 3 3 7.1 4.9 11.7 4.8.2-.3.1-.2.3-.5z"/></g></svg>