<?xml version="1.0" encoding="UTF-8"?>
<svg width="179px" height="48px" viewBox="0 0 179 48" version="1.1" xmlns="http://www.w3.org/2000/svg" xmlns:xlink="http://www.w3.org/1999/xlink">
    <!-- Generator: Sketch 52.5 (67469) - http://www.bohemiancoding.com/sketch -->
    <title>Group 2</title>
    <desc>Created with Sketch.</desc>
    <g id="Page-1" stroke="none" stroke-width="1" fill="none" fill-rule="evenodd">
        <g id="Artboard" transform="translate(-57.000000, -73.000000)" fill="#5E2CA5">
            <g id="Group-2" transform="translate(57.000000, 69.000000)">
                <g id="Group" transform="translate(0.000000, 4.000000)">
                    <path d="M24,47.5 C11,47.5 0.5,37 0.5,24 C0.5,11 11,0.5 24,0.5 C37,0.5 47.5,11 47.5,24 C47.5,37 37,47.5 24,47.5 Z M24,4.1 C13,4.1 4.1,13 4.1,24 C4.1,35 13,43.9 24,43.9 C35,43.9 43.9,35 43.9,24 C43.9,13 35,4.1 24,4.1 Z" id="Shape" fill-rule="nonzero"></path>
                    <path d="M33.2,24.2 C33.2,24.2 33.2,24.3 33.1,24.3 L31.3,27.5 C31.2,27.7 31.3,28 31.6,28 L39.5,28 C39.7,28 39.8,27.9 39.8,27.7 C40.1,26.5 40.2,25.2 40.2,24 C40.2,21.3 39.5,18.7 38.3,16.4 C38.2,16.2 37.9,16.2 37.7,16.4 L33.2,24.2 Z" id="Path"></path>
                    <path d="M29.5,16.2 C29.5,16.2 29.5,16.2 29.5,16.2 L29.9,16.9 L30,17.2 C30,17.2 30,17.2 30,17.2 L31.2,19.4 C31.3,19.6 31.6,19.6 31.8,19.4 L35.5,13.1 C35.6,13 35.6,12.8 35.5,12.7 C32.8,10 29.2,8.3 25.2,7.9 C24.9,7.9 24.8,8.2 24.9,8.4 L29.5,16.2 Z" id="Path"></path>
                    <path d="M20.5,15.3 C20.5,15.3 20.6,15.3 20.6,15.3 C20.6,15.3 20.7,15.3 20.7,15.3 L24.3,15.3 C24.6,15.3 24.7,15 24.6,14.8 L20.9,8.3 C20.8,8.2 20.7,8.1 20.5,8.1 C16.5,9 13,11.4 10.8,14.7 C10.7,14.9 10.8,15.2 11.1,15.2 L20.5,15.2 L20.5,15.3 Z" id="Path"></path>
                    <path d="M15.2,22.9 C15.3,22.8 15.3,22.7 15.4,22.7 C15.4,22.6 15.4,22.6 15.5,22.5 L17.3,19.3 C17.4,19.1 17.3,18.8 17,18.8 L8.8,18.8 C8.7,18.8 8.5,18.9 8.5,19 C8,20.7 7.8,22.3 7.8,24 C7.8,26.7 8.5,29.3 9.7,31.5 C9.8,31.7 10.1,31.7 10.3,31.5 L15.2,22.9 Z" id="Path"></path>
                    <path d="M28.5,31.6 C28.4,31.6 28.3,31.6 28.1,31.6 C28,31.6 28,31.6 27.9,31.6 L24.3,31.6 C24,31.6 23.9,31.9 24,32.1 L28.3,39.4 C28.4,39.5 28.5,39.6 28.7,39.5 C32.6,38.3 35.9,35.6 37.9,32.1 C38,31.9 37.9,31.6 37.6,31.6 L28.5,31.6 Z" id="Path"></path>
                    <path d="M19.1,30.8 C19,30.7 19,30.5 18.9,30.4 L17.3,27.6 C17.2,27.4 16.9,27.4 16.7,27.6 L12.4,35 C12.3,35.1 12.3,35.3 12.4,35.4 C15.4,38.4 19.5,40.3 24.1,40.2 C24.3,39.9 24.2,40 24.4,39.7 L19.1,30.8 Z" id="Path"></path>
                </g>
                <text id="Recall" font-family="Roboto-Medium, Roboto" font-size="48" font-weight="400" letter-spacing="-0.959999979">
                    <tspan x="56" y="45">Recall</tspan>
                </text>
            </g>
        </g>
    </g>
</svg>