<svg width="20" height="16" viewBox="0 0 20 16" fill="none" xmlns="http://www.w3.org/2000/svg">
<path d="M0.597227 0.000904694C0.432719 0.0181463 0.280494 0.0959166 0.170126 0.219112C0.0597568 0.342308 -0.00087497 0.502133 9.54287e-06 0.667531V14.8889C2.79171e-05 15.0657 0.0702713 15.2352 0.195291 15.3602C0.32031 15.4852 0.489867 15.5555 0.666671 15.5555H8.88883C8.97719 15.5568 9.06491 15.5405 9.14691 15.5075C9.22891 15.4746 9.30355 15.4257 9.36648 15.3637C9.42941 15.3016 9.47939 15.2277 9.51349 15.1462C9.5476 15.0647 9.56517 14.9772 9.56517 14.8889C9.56517 14.8005 9.5476 14.713 9.51349 14.6315C9.47939 14.55 9.42941 14.4761 9.36648 14.414C9.30355 14.352 9.22891 14.3031 9.14691 14.2702C9.06491 14.2373 8.97719 14.221 8.88883 14.2222H1.33333V1.33416H8.88883C8.97717 1.33541 9.06488 1.31909 9.14686 1.28616C9.22885 1.25322 9.30346 1.2043 9.36638 1.14228C9.4293 1.08025 9.47925 1.00634 9.51336 0.924841C9.54745 0.84334 9.56501 0.755878 9.56501 0.667531C9.56501 0.579184 9.54745 0.491708 9.51336 0.410206C9.47925 0.328705 9.4293 0.254798 9.36638 0.192772C9.30346 0.130746 9.22885 0.0818442 9.14686 0.0489055C9.06488 0.0159668 8.97717 -0.000348409 8.88883 0.000904694H0.666671C0.643539 -0.000301561 0.620359 -0.000301561 0.597227 0.000904694ZM11.0416 0.000904694C10.954 0.00536927 10.8681 0.0270599 10.7889 0.0647339C10.7096 0.102408 10.6386 0.155329 10.5799 0.220468C10.5211 0.285608 10.4758 0.361684 10.4464 0.444359C10.4171 0.527034 10.4043 0.614675 10.4089 0.70228C10.4135 0.789885 10.4353 0.875745 10.473 0.954925C10.5108 1.0341 10.5638 1.10506 10.629 1.16375C10.6942 1.22243 10.7703 1.26769 10.8531 1.29693C10.9358 1.32617 11.0234 1.33882 11.111 1.33416H18.6665V6.66715C18.6653 6.75549 18.6816 6.84319 18.7145 6.92517C18.7475 7.00714 18.7964 7.08175 18.8584 7.14466C18.9205 7.20757 18.9944 7.25753 19.0759 7.29162C19.1574 7.32572 19.2448 7.34327 19.3332 7.34327C19.4215 7.34327 19.509 7.32572 19.5905 7.29162C19.672 7.25753 19.7459 7.20757 19.808 7.14466C19.87 7.08175 19.9189 7.00714 19.9518 6.92517C19.9848 6.84319 20.0011 6.75549 19.9999 6.66715V0.667531C19.9998 0.490736 19.9296 0.321189 19.8046 0.196176C19.6796 0.071164 19.51 0.00092237 19.3332 0.000904694H11.111C11.0879 -0.000301565 11.0647 -0.000301565 11.0416 0.000904694ZM9.99993 2.88962C7.75105 2.88962 5.84209 4.40654 5.27775 6.48661C5.25446 6.57143 5.24811 6.66 5.25906 6.74727C5.27001 6.83454 5.29805 6.9188 5.34157 6.99523C5.3851 7.07167 5.44325 7.13879 5.51272 7.19274C5.58219 7.2467 5.6616 7.28643 5.74643 7.30969C5.83126 7.33295 5.91984 7.33928 6.00712 7.3283C6.09439 7.31732 6.17864 7.28924 6.25507 7.2457C6.33149 7.20215 6.39859 7.14398 6.45252 7.0745C6.50646 7.00502 6.54617 6.92558 6.5694 6.84075C6.97865 5.33235 8.35172 4.22286 9.99993 4.22286C11.6481 4.22286 13.0212 5.33235 13.4305 6.84075C13.4537 6.92558 13.4934 7.00502 13.5473 7.0745C13.6013 7.14398 13.6684 7.20215 13.7448 7.2457C13.8212 7.28924 13.9055 7.31732 13.9927 7.3283C14.08 7.33928 14.1686 7.33295 14.2534 7.30969C14.3383 7.28643 14.4177 7.2467 14.4871 7.19274C14.5566 7.13879 14.6148 7.07167 14.6583 6.99523C14.7018 6.9188 14.7299 6.83454 14.7408 6.74727C14.7518 6.66 14.7454 6.57143 14.7221 6.48661C14.1578 4.40654 12.2488 2.88962 9.99993 2.88962ZM5.93746 8.20874C5.83223 8.20558 5.72774 8.2274 5.63256 8.27239C5.53738 8.31738 5.4542 8.38428 5.38985 8.46759C5.32549 8.55091 5.28178 8.64829 5.2623 8.75175C5.24281 8.8552 5.24811 8.9618 5.27775 9.06282C5.84209 11.1429 7.75105 12.6668 9.99993 12.6668C12.2488 12.6668 14.1578 11.1429 14.7221 9.06282C14.7456 8.97795 14.7521 8.88928 14.7412 8.80189C14.7304 8.7145 14.7024 8.63012 14.6589 8.55356C14.6154 8.477 14.5572 8.40977 14.4877 8.35572C14.4182 8.30167 14.3387 8.26187 14.2537 8.23859C14.1688 8.2153 14.0801 8.209 13.9928 8.22003C13.9054 8.23107 13.8211 8.25921 13.7446 8.30288C13.6681 8.34655 13.601 8.40486 13.5471 8.4745C13.4932 8.54413 13.4536 8.62371 13.4305 8.70868C13.0212 10.2171 11.6481 11.3335 9.99993 11.3335C8.35172 11.3335 6.97865 10.2171 6.5694 8.70868C6.53305 8.56782 6.45161 8.44271 6.33751 8.35244C6.22342 8.26217 6.08292 8.21171 5.93746 8.20874ZM19.3263 8.20874C19.2381 8.20964 19.151 8.22802 19.07 8.2628C18.989 8.29758 18.9158 8.34806 18.8544 8.41135C18.793 8.47463 18.7449 8.54945 18.7126 8.63148C18.6804 8.71351 18.6647 8.80112 18.6665 8.88924V14.2222H11.111C11.0227 14.221 10.935 14.2373 10.853 14.2702C10.771 14.3031 10.6963 14.352 10.6334 14.414C10.5705 14.4761 10.5205 14.55 10.4864 14.6315C10.4523 14.713 10.4347 14.8005 10.4347 14.8889C10.4347 14.9772 10.4523 15.0647 10.4864 15.1462C10.5205 15.2277 10.5705 15.3016 10.6334 15.3637C10.6963 15.4257 10.771 15.4746 10.853 15.5075C10.935 15.5405 11.0227 15.5568 11.111 15.5555H19.3332C19.51 15.5555 19.6796 15.4852 19.8046 15.3602C19.9296 15.2352 19.9998 15.0657 19.9999 14.8889V8.88924C20.0017 8.79995 19.9856 8.7112 19.9525 8.62825C19.9194 8.54531 19.87 8.46986 19.8071 8.40638C19.7443 8.34291 19.6694 8.29271 19.5868 8.25876C19.5041 8.2248 19.4156 8.2078 19.3263 8.20874Z" fill="black"/>
</svg>
