<svg viewBox="0 0 48 48" xmlns="http://www.w3.org/2000/svg"><g fill="none" stroke="#808080" stroke-linecap="square" stroke-miterlimit="10" stroke-width="2"><path d="m19.819 30.734-.358-2.508c4.872 1.107 7.539-.226 7.539-.226a18.983 18.983 0 0 1 -3-9v-1.726a8.182 8.182 0 0 0 -7.467-8.257 8 8 0 0 0 -8.533 7.983v2a18.983 18.983 0 0 1 -3 9s2.667 1.333 7.539.226l-.358 2.508a2 2 0 0 1 -1.4 1.633l-6.643 1.992a3 3 0 0 0 -2.138 2.873v4.768h28v-4.768a3 3 0 0 0 -2.138-2.873l-6.638-1.992a2 2 0 0 1 -1.405-1.633z" stroke="#808080"/><path d="m36 42h10v-6.9a3 3 0 0 0 -1.975-2.819l-7.9-2.872a2 2 0 0 1 -1.3-1.6l-.506-3.543a7.994 7.994 0 0 0 4.681-7.266v-5.927a4.367 4.367 0 0 0 -4.364-4.364l-1.129-2.259a.843.843 0 0 0 -1.007-.406l-5.388 1.923a5.6 5.6 0 0 0 -1.738 1.033"/></g></svg>