<svg viewBox="0 0 48 48" xmlns="http://www.w3.org/2000/svg"><g fill="none" stroke="#111" stroke-linecap="square" stroke-miterlimit="10" stroke-width="2"><path d="m19.325 42h-5.794a4 4 0 0 1 -3.969-3.5l-1.132-9.062" stroke-linecap="butt"/><path d="m28.675 42h5.794a4 4 0 0 0 3.969-3.5l1.132-9.058" stroke-linecap="butt"/><g stroke="#111"><path d="m46 19.556a6.634 6.634 0 0 0 -6.6-6.667 6.634 6.634 0 0 0 -6.6-6.667 6.487 6.487 0 0 0 -3.235.889 6.533 6.533 0 0 0 -11.13 0 6.487 6.487 0 0 0 -3.235-.889 6.634 6.634 0 0 0 -6.6 6.667 6.653 6.653 0 0 0 -4.9 11.1l15.115 17.424a6.49 6.49 0 0 0 10.37 0l15.115-17.428a6.651 6.651 0 0 0 1.7-4.429z"/><path d="m18.435 7.111 3.151 20.889" stroke-linecap="butt"/><path d="m8.6 12.889 8.4 16.97" stroke-linecap="butt"/><path d="m29.44 7.111-3.151 20.889" stroke-linecap="butt"/><path d="m39.275 12.889-8.47 17.111" stroke-linecap="butt"/></g></g></svg>