<svg xmlns="http://www.w3.org/2000/svg" viewBox="0 0 48 48" stroke="none"><title>shell</title><g class="nc-icon-wrapper" stroke-linecap="square" stroke-linejoin="miter" stroke-width="2" fill="#5661B3" stroke="#5661B3"><path d="M19.325,42H13.531a4,4,0,0,1-3.969-3.5L8.43,29.438" fill="none" stroke-miterlimit="10" data-cap="butt" data-color="color-2" stroke-linecap="butt"/> <path d="M28.675,42h5.794a4,4,0,0,0,3.969-3.5l1.132-9.058" fill="none" stroke-miterlimit="10" data-cap="butt" data-color="color-2" stroke-linecap="butt"/> <path d="M46,19.556a6.634,6.634,0,0,0-6.6-6.667,6.634,6.634,0,0,0-6.6-6.667,6.487,6.487,0,0,0-3.235.889,6.533,6.533,0,0,0-11.13,0A6.487,6.487,0,0,0,15.2,6.222a6.634,6.634,0,0,0-6.6,6.667,6.653,6.653,0,0,0-4.9,11.1L18.815,41.413a6.49,6.49,0,0,0,10.37,0L44.3,23.985A6.651,6.651,0,0,0,46,19.556Z" fill="none" stroke="#5661B3" stroke-miterlimit="10"/> <line x1="18.435" y1="7.111" x2="21.586" y2="28" fill="none" stroke="#5661B3" stroke-miterlimit="10" data-cap="butt" stroke-linecap="butt"/> <line x1="8.6" y1="12.889" x2="17" y2="29.859" fill="none" stroke="#5661B3" stroke-miterlimit="10" data-cap="butt" stroke-linecap="butt"/> <line x1="29.44" y1="7.111" x2="26.289" y2="28" fill="none" stroke="#5661B3" stroke-miterlimit="10" data-cap="butt" stroke-linecap="butt"/> <line x1="39.275" y1="12.889" x2="30.805" y2="30" fill="none" stroke="#5661B3" stroke-miterlimit="10" data-cap="butt" stroke-linecap="butt"/></g></svg>